<svg width="77" height="81" viewBox="0 0 77 81" fill="none" xmlns="http://www.w3.org/2000/svg">
<path d="M17.9624 40.3467C17.9624 51.6641 27.1292 60.8662 38.4819 60.8662C49.7993 60.8662 58.9661 51.6994 58.9661 40.3467C58.9661 29.0292 49.7993 19.8624 38.4819 19.8624C27.1644 19.8624 17.9977 29.0292 17.9624 40.3467ZM38.4819 21.6253C43.6647 21.6253 48.3538 23.7054 51.7385 27.1254C55.1231 30.51 57.2385 35.1992 57.2385 40.3819C57.2385 45.5647 55.1584 50.2539 51.7385 53.6385C48.3538 57.0232 43.6647 59.1386 38.4819 59.1386C33.2991 59.1386 28.61 57.0584 25.2253 53.6385C21.8407 50.2539 19.7252 45.5647 19.7252 40.3819C19.7252 35.1992 21.8054 30.51 25.2253 27.1254C28.61 23.7054 33.2991 21.6253 38.4819 21.6253Z" stroke="white" stroke-width="2"/>
<path d="M39.3644 11.6828V1.88142C39.3644 1.38783 38.9766 1 38.483 1C37.9894 1 37.6016 1.38783 37.6016 1.88142V11.6828C37.6016 12.1764 37.9894 12.5642 38.483 12.5642C38.9766 12.5642 39.3644 12.1764 39.3644 11.6828Z" stroke="white" stroke-width="2"/>
<path d="M16.5873 8.72126C16.3053 8.29818 15.7411 8.22766 15.3533 8.50972C14.9655 8.79177 14.8597 9.35588 15.1418 9.74371L20.9239 17.6765C21.206 18.0643 21.7701 18.1701 22.1579 17.888C22.5457 17.606 22.6162 17.0419 22.3342 16.6541L16.5873 8.72126Z" stroke="white" stroke-width="2"/>
<path d="M1.6037 29.3113L10.9468 32.3434C11.4051 32.4844 11.8987 32.2376 12.0397 31.7792C12.216 31.2856 11.934 30.7921 11.4756 30.651L2.16781 27.6189C1.70947 27.4779 1.18062 27.7247 1.03959 28.183C0.898566 28.6414 1.14536 29.135 1.6037 29.3113Z" stroke="white" stroke-width="2"/>
<path d="M2.16781 53.0743L11.5109 50.0423C11.9692 49.9012 12.216 49.4076 12.075 48.914C11.934 48.4557 11.4404 48.2089 10.9468 48.3499L1.6037 51.382C1.14536 51.523 0.898566 52.0166 1.03959 52.5102C1.18062 52.9686 1.70947 53.2154 2.16781 53.0743Z" stroke="white" stroke-width="2"/>
<path d="M15.3533 72.1836C15.7411 72.4656 16.3053 72.3951 16.5873 71.972L22.3694 64.0393C22.6515 63.6514 22.581 63.0873 22.1579 62.8053C21.7348 62.5232 21.206 62.629 20.9239 63.0168L15.1418 70.9496C14.8597 71.3727 14.9655 71.9015 15.3533 72.1836Z" stroke="white" stroke-width="2"/>
<path d="M37.6016 69.0104V78.8119C37.6016 79.3055 37.9894 79.6933 38.483 79.6933C38.9766 79.6933 39.3644 79.3055 39.3644 78.8119V69.0104C39.3644 68.5169 38.9766 68.129 38.483 68.129C37.9894 68.129 37.6016 68.5521 37.6016 69.0104Z" stroke="white" stroke-width="2"/>
<path d="M56.0409 63.0168C55.7589 62.629 55.1948 62.5232 54.8069 62.8053C54.4191 63.0873 54.3133 63.6514 54.5954 64.0393L60.3775 71.972C60.6596 72.3599 61.2237 72.4656 61.6115 72.1836C61.9993 71.9015 62.1051 71.3374 61.8231 70.9496L56.0409 63.0168Z" stroke="white" stroke-width="2"/>
<path d="M65.4892 50.0423L74.8323 53.0743C75.2906 53.2154 75.7842 52.9686 75.9605 52.5102C76.1016 52.0519 75.8548 51.5583 75.3964 51.382L66.0533 48.3499C65.595 48.2089 65.1014 48.4557 64.9251 48.914C64.7488 49.4076 65.0309 49.9012 65.4892 50.0423Z" stroke="white" stroke-width="2"/>
<path d="M66.0174 32.3434L75.3605 29.3113C75.8188 29.1702 76.0656 28.6766 75.9246 28.183C75.7836 27.7247 75.29 27.4779 74.7964 27.6189L65.4533 30.651C64.995 30.7921 64.7482 31.2856 64.8892 31.7792C65.0655 32.2376 65.5591 32.4844 66.0174 32.3434Z" stroke="white" stroke-width="2"/>
<path d="M61.6111 8.50972C61.2233 8.22766 60.6592 8.29818 60.3771 8.72126L54.595 16.6541C54.313 17.0419 54.3835 17.606 54.8066 17.888C55.2296 18.1701 55.7585 18.0996 56.0405 17.6765L61.8227 9.74371C62.1047 9.35588 61.999 8.79177 61.6111 8.50972Z" stroke="white" stroke-width="2"/>
</svg>
